<?xml version="1.0" encoding="UTF-8" standalone="no"?>
<!DOCTYPE svg PUBLIC "-//W3C//DTD SVG 1.1//EN" "http://www.w3.org/Graphics/SVG/1.1/DTD/svg11.dtd">
<svg width="100%" height="100%" viewBox="0 0 820 412" version="1.1" xmlns="http://www.w3.org/2000/svg" xmlns:xlink="http://www.w3.org/1999/xlink" xml:space="preserve" xmlns:serif="http://www.serif.com/" style="fill-rule:evenodd;clip-rule:evenodd;stroke-miterlimit:1.41421;">
    <g transform="matrix(4.16667,0,0,4.16667,-1,-2)">
        <rect x="45.833" y="55.507" width="149.5" height="17.25" style="fill:rgb(20,19,95);fill-rule:nonzero;"/>
        <rect x="45.833" y="55.507" width="149.5" height="17.25" style="fill:none;stroke:rgb(20,19,95);stroke-width:3px;"/>
        <rect x="45.833" y="55.507" width="149.5" height="17.25" style="fill:rgb(20,19,95);fill-rule:nonzero;"/>
        <rect x="45.833" y="55.507" width="149.5" height="17.25" style="fill:none;stroke:white;stroke-width:0.95px;"/>
        <path d="M4.514,67.295L4.682,67.317L4.759,66.642L4.591,66.625L4.514,67.295ZM4.05,65.426C4.108,65.885 3.533,65.992 3.449,66.209C3.625,66.626 3.86,66.087 4.138,66.118C4.39,65.923 4.203,65.557 4.05,65.426ZM1.563,63.377C1.53,63.661 0.996,63.882 1.357,64.205L2.359,63.868C2.279,63.577 1.762,63.631 1.563,63.377ZM6.591,63.564L6.312,63.535L6.344,63.254L6.623,63.286L6.591,63.564ZM86.322,40.262C84.138,42.448 82.818,45.524 82.509,48.668C82.636,49.021 82.979,49.007 83.26,49.039C84.491,47.706 85.457,46.231 86.103,44.604C86.474,43.341 87.142,41.495 86.322,40.262ZM148.832,39.235C148.332,39.63 149.4,40.206 149.492,39.426L148.832,39.235ZM150.318,39.123L150.284,39.404C149.875,39.526 150.033,39.147 149.94,38.969C150.052,38.979 150.283,38.95 150.318,39.123ZM124.83,30.041C122.936,31.185 122.038,33.569 121.475,35.493C123.158,34.157 124.93,32.607 125.455,30.508C125.506,30.06 124.965,30.338 124.83,30.041ZM101.866,14.33C97.193,11.065 90.756,10.825 85.031,10.337C67.45,10.79 51.04,15.35 35.71,23.783C33.481,25.395 29.54,27.094 29.123,30.221C29.492,30.946 30.357,30.82 30.871,31.274C39.343,33.051 47.86,34.439 56.638,36.023C59.928,36.519 62.568,38.186 64.621,41.033C65.183,42.059 65.718,43.317 65.998,44.311L67.43,40.285C68.192,38.103 69.566,36.049 69.945,33.766C67.811,33.58 65.911,34.322 63.776,34.126C62.591,33.596 61.733,32.188 60.809,31.343C60.613,31.096 60.277,30.547 60.809,30.379C64.832,29.431 69.003,29.179 73.02,28.283C75.316,24.632 76.696,20.542 79.36,17.163C81.659,17.883 83.811,18.872 85.684,20.333C85.582,21.232 84.885,21.832 84.467,22.517C83.903,23.93 82.642,25.031 82.642,26.507C89.599,25.216 96.499,23.408 102.335,18.58C103.114,17.763 102.941,16.78 102.959,15.647L101.866,14.33ZM102.098,9.876C104.189,13.862 109.711,18.074 105.666,22.654C97.793,27.922 89.139,30.151 80.35,32.081C78.176,33.703 77.572,36.463 76.292,38.702C75.252,41.814 73.052,44.622 73.164,48.035C73.438,48.638 74.004,48.135 74.398,48.178C76.654,47.306 75.71,44.704 76.631,43.109C78.173,39.6 79.76,35.701 83.453,33.687C85.55,33.706 87.741,34.358 89.341,35.734C92.463,35.701 95.213,33.523 97.546,31.524C99.334,31.733 101.162,32.116 101.918,33.906C102.09,35.855 100.425,37.475 99.919,39.402C99.95,39.632 99.744,39.951 99.954,40.087C101.472,38.732 101.906,36.455 103.779,35.48C105.051,35.742 106.938,35.622 107.711,36.787C107.252,38.775 106.08,40.572 106.227,42.742C107.408,41.347 107.866,39.36 108.682,37.696C109.333,36.013 108.665,33.44 110.628,32.646C111.784,32.495 113.056,32.758 113.94,33.429C114.919,34.277 113.249,35.499 114.47,36.212C114.998,35.081 115.527,33.952 116.052,32.821C117.484,30.265 118.72,27.459 120.986,25.511C123.756,25.096 127.026,25.759 129.229,27.319C131.393,29.667 129.313,32.943 128.212,35.084C126.276,38.095 123.404,41.842 119.464,42.067C118.664,42.597 118.534,43.716 118.66,44.582C118.987,45.696 120.354,45.628 121.272,45.563C127.774,44.22 133.938,41.476 140.405,40.011C142.062,38.906 143.872,39.454 145.117,38.007C145.757,38.364 146.477,38.505 146.915,39.127L147.22,38.934C147.074,38.745 146.868,38.553 146.895,38.33L147.789,38.432C147.708,38.65 147.926,38.735 148.026,38.856C148.805,37.985 149.767,39.968 150.007,38.408C151.039,38.301 151.028,40.851 151.82,38.902C151.989,38.919 152.159,38.886 152.253,39.066C152.166,39.34 151.685,39.567 151.991,39.886C152.45,38.858 152.894,40.388 153.379,39.649C153.547,39.67 153.836,39.591 153.925,39.825C152.916,40.22 154.545,41.316 153.096,41.091C153.226,41.445 153.155,42.059 152.784,42.303C152.133,42.059 151.633,42.964 150.864,42.76C149.731,43.709 148.255,43.705 147.074,44.59C145.617,44.423 144.483,45.423 143.071,45.372C142.788,45.397 142.452,45.814 142.219,45.388C134.973,47.721 127.956,51.502 119.85,50.449C117.26,49.299 113.91,47.379 113.667,44.115C113.101,43.087 113.94,41.255 112.399,40.85C111.28,42.195 110.961,43.972 110.101,45.515C109.359,47.018 108.751,48.82 106.922,49.462C105.412,49.737 103.46,49.452 102.12,48.787L100.732,46.584C99.226,47.828 98.433,49.778 96.45,50.739C94.92,50.73 92.995,50.678 91.938,49.535C89.807,46.394 92.713,43.33 93.295,40.276C93.458,39.84 93.73,39.478 93.731,38.967C92.991,38.484 92.187,39.07 91.715,39.697C91.922,44.769 89.705,49.221 86.41,52.696C83.877,53.992 80.458,54.157 77.836,52.776C77.178,52.584 76.937,51.71 76.134,51.785C74.5,52.675 72.498,53.802 70.579,52.727C67.952,51.914 67.01,48.8 65.844,46.623C65.377,47.702 64.85,48.83 63.735,49.669C49.557,56.47 34.898,61.575 20.649,68.033C19.418,67.89 18.311,69.123 17.306,68.497L16.088,69.715C16.237,69.392 15.97,69.247 15.885,69.012C15.143,69.037 15.232,70.243 14.464,69.526L14.116,69.091C13.886,69.118 13.967,69.415 13.946,69.582L13.387,69.518L13.399,69.402C13.043,69.079 12.627,69.711 12.123,69.651C12.289,68.707 11.438,69.689 11.104,69.137C10.711,69.603 10.315,69.614 9.898,69.283C9.981,69.067 9.761,68.982 9.671,68.803C9.259,68.921 9.128,68.566 8.875,68.311L8.404,68.94C7.915,68.767 7.235,67.779 6.796,68.639C6.355,68.53 6.794,67.673 6.109,67.708C5.699,67.832 5.655,68.678 5.259,68.174C5.464,67.916 5.5,67.581 5.855,67.45L6.717,67.377C7.152,67.034 6.632,66.632 6.56,66.288C5.937,66.269 6.661,66.866 6.187,67.034C5.526,66.392 5.186,67.372 4.859,67.734L4.813,68.124C4.578,68.208 3.958,68.137 3.782,67.721L3.437,68.249C3.409,68.017 3.182,67.028 3.86,67.05C3.937,66.89 3.727,66.75 3.625,66.626C3.117,66.623 3.202,67.368 2.655,67.193C2.572,66.446 3.259,65.391 2.341,65.001L1.872,65.626L1.094,64.97C0.858,65.059 1.032,65.529 0.639,65.485C0.625,64.632 0.384,63.754 1.186,63.224C1.596,63.101 1.916,62.795 2.315,62.788C2.338,63.074 2.633,63.448 2.908,63.537C3.684,63.229 2.694,62.432 3.467,62.126L3.97,62.695C4.439,62.069 4.439,61.105 5.268,60.803C6.284,61.317 6.641,59.714 7.495,60.663C7.85,60.535 7.778,60.189 7.811,59.906L7.716,59.728C8.397,59.238 9.478,58.74 10.181,59.503C10.76,58.434 12.02,60.284 12.473,58.804C13.211,58.322 14.309,59.131 14.991,58.132C16.119,58.206 16.547,56.95 17.801,57.382C18.486,57.349 19.075,56.677 19.758,56.645C31.27,52.76 42.749,49.157 54.016,44.455C54.701,43.911 55.399,43.761 56.037,43.156L55.688,42.72C46.664,41.333 36.083,42.092 27.963,37.74C25.812,36.754 24.696,34.132 23.012,32.52C20.962,29.668 20.304,25.566 21.968,22.47C26.357,15.436 34.87,12.455 41.781,9.114C53.522,4.693 65.787,2.145 78.563,1.532C86.522,1.882 97.511,1.517 102.098,9.876Z" style="fill:rgb(211,17,69);fill-rule:nonzero;"/>
        <path d="M4.514,67.295L4.682,67.317L4.759,66.642L4.591,66.625L4.514,67.295ZM4.05,65.426C4.108,65.885 3.533,65.992 3.449,66.209C3.625,66.626 3.86,66.087 4.138,66.118C4.39,65.923 4.203,65.557 4.05,65.426ZM1.563,63.377C1.53,63.661 0.996,63.882 1.357,64.205L2.359,63.868C2.279,63.577 1.762,63.631 1.563,63.377ZM6.591,63.564L6.312,63.535L6.344,63.254L6.623,63.286L6.591,63.564ZM86.322,40.262C84.138,42.448 82.818,45.524 82.509,48.668C82.636,49.021 82.979,49.007 83.26,49.039C84.491,47.706 85.457,46.231 86.103,44.604C86.474,43.341 87.142,41.495 86.322,40.262ZM148.832,39.235C148.332,39.63 149.4,40.206 149.492,39.426L148.832,39.235ZM150.318,39.123L150.284,39.404C149.875,39.526 150.033,39.147 149.94,38.969C150.052,38.979 150.283,38.95 150.318,39.123ZM124.83,30.041C122.936,31.185 122.038,33.569 121.475,35.493C123.158,34.157 124.93,32.607 125.455,30.508C125.506,30.06 124.965,30.338 124.83,30.041ZM101.866,14.33C97.193,11.065 90.756,10.825 85.031,10.337C67.45,10.79 51.04,15.35 35.71,23.783C33.481,25.395 29.54,27.094 29.123,30.221C29.492,30.946 30.357,30.82 30.871,31.274C39.343,33.051 47.86,34.439 56.638,36.023C59.928,36.519 62.568,38.186 64.621,41.033C65.183,42.059 65.718,43.317 65.998,44.311L67.43,40.285C68.192,38.103 69.566,36.049 69.945,33.766C67.811,33.58 65.911,34.322 63.776,34.126C62.591,33.596 61.733,32.188 60.809,31.343C60.613,31.096 60.277,30.547 60.809,30.379C64.832,29.431 69.003,29.179 73.02,28.283C75.316,24.632 76.696,20.542 79.36,17.163C81.659,17.883 83.811,18.872 85.684,20.333C85.582,21.232 84.885,21.832 84.467,22.517C83.903,23.93 82.642,25.031 82.642,26.507C89.599,25.216 96.499,23.408 102.335,18.58C103.114,17.763 102.941,16.78 102.959,15.647L101.866,14.33ZM102.098,9.876C104.189,13.862 109.711,18.074 105.666,22.654C97.793,27.922 89.139,30.151 80.35,32.081C78.176,33.703 77.572,36.463 76.292,38.702C75.252,41.814 73.052,44.622 73.164,48.035C73.438,48.638 74.004,48.135 74.398,48.178C76.654,47.306 75.71,44.704 76.631,43.109C78.173,39.6 79.76,35.701 83.453,33.687C85.55,33.706 87.741,34.358 89.341,35.734C92.463,35.701 95.213,33.523 97.546,31.524C99.334,31.733 101.162,32.116 101.918,33.906C102.09,35.855 100.425,37.475 99.919,39.402C99.95,39.632 99.744,39.951 99.954,40.087C101.472,38.732 101.906,36.455 103.779,35.48C105.051,35.742 106.938,35.622 107.711,36.787C107.252,38.775 106.08,40.572 106.227,42.742C107.408,41.347 107.866,39.36 108.682,37.696C109.333,36.013 108.665,33.44 110.628,32.646C111.784,32.495 113.056,32.758 113.94,33.429C114.919,34.277 113.249,35.499 114.47,36.212C114.998,35.081 115.527,33.952 116.052,32.821C117.484,30.265 118.72,27.459 120.986,25.511C123.756,25.096 127.026,25.759 129.229,27.319C131.393,29.667 129.313,32.943 128.212,35.084C126.276,38.095 123.404,41.842 119.464,42.067C118.664,42.597 118.534,43.716 118.66,44.582C118.987,45.696 120.354,45.628 121.272,45.563C127.774,44.22 133.938,41.476 140.405,40.011C142.062,38.906 143.872,39.454 145.117,38.007C145.757,38.364 146.477,38.505 146.915,39.127L147.22,38.934C147.074,38.745 146.868,38.553 146.895,38.33L147.789,38.432C147.708,38.65 147.926,38.735 148.026,38.856C148.805,37.985 149.767,39.968 150.007,38.408C151.039,38.301 151.028,40.851 151.82,38.902C151.989,38.919 152.159,38.886 152.253,39.066C152.166,39.34 151.685,39.567 151.991,39.886C152.45,38.858 152.894,40.388 153.379,39.649C153.547,39.67 153.836,39.591 153.925,39.825C152.916,40.22 154.545,41.316 153.096,41.091C153.226,41.445 153.155,42.059 152.784,42.303C152.133,42.059 151.633,42.964 150.864,42.76C149.731,43.709 148.255,43.705 147.074,44.59C145.617,44.423 144.483,45.423 143.071,45.372C142.788,45.397 142.452,45.814 142.219,45.388C134.973,47.721 127.956,51.502 119.85,50.449C117.26,49.299 113.91,47.379 113.667,44.115C113.101,43.087 113.94,41.255 112.399,40.85C111.28,42.195 110.961,43.972 110.101,45.515C109.359,47.018 108.751,48.82 106.922,49.462C105.412,49.737 103.46,49.452 102.12,48.787L100.732,46.584C99.226,47.828 98.433,49.778 96.45,50.739C94.92,50.73 92.995,50.678 91.938,49.535C89.807,46.394 92.713,43.33 93.295,40.276C93.458,39.84 93.73,39.478 93.731,38.967C92.991,38.484 92.187,39.07 91.715,39.697C91.922,44.769 89.705,49.221 86.41,52.696C83.877,53.992 80.458,54.157 77.836,52.776C77.178,52.584 76.937,51.71 76.134,51.785C74.5,52.675 72.498,53.802 70.579,52.727C67.952,51.914 67.01,48.8 65.844,46.623C65.377,47.702 64.85,48.83 63.735,49.669C49.557,56.47 34.898,61.575 20.649,68.033C19.418,67.89 18.311,69.123 17.306,68.497L16.088,69.715C16.237,69.392 15.97,69.247 15.885,69.012C15.143,69.037 15.232,70.243 14.464,69.526L14.116,69.091C13.886,69.118 13.967,69.415 13.946,69.582L13.387,69.518L13.399,69.402C13.043,69.079 12.627,69.711 12.123,69.651C12.289,68.707 11.438,69.689 11.104,69.137C10.711,69.603 10.315,69.614 9.898,69.283C9.981,69.067 9.761,68.982 9.671,68.803C9.259,68.921 9.128,68.566 8.875,68.311L8.404,68.94C7.915,68.767 7.235,67.779 6.796,68.639C6.355,68.53 6.794,67.673 6.109,67.708C5.699,67.832 5.655,68.678 5.259,68.174C5.464,67.916 5.5,67.581 5.855,67.45L6.717,67.377C7.152,67.034 6.632,66.632 6.56,66.288C5.937,66.269 6.661,66.866 6.187,67.034C5.526,66.392 5.186,67.372 4.859,67.734L4.813,68.124C4.578,68.208 3.958,68.137 3.782,67.721L3.437,68.249C3.409,68.017 3.182,67.028 3.86,67.05C3.937,66.89 3.727,66.75 3.625,66.626C3.117,66.623 3.202,67.368 2.655,67.193C2.572,66.446 3.259,65.391 2.341,65.001L1.872,65.626L1.094,64.97C0.858,65.059 1.032,65.529 0.639,65.485C0.625,64.632 0.384,63.754 1.186,63.224C1.596,63.101 1.916,62.795 2.315,62.788C2.338,63.074 2.633,63.448 2.908,63.537C3.684,63.229 2.694,62.432 3.467,62.126L3.97,62.695C4.439,62.069 4.439,61.105 5.268,60.803C6.284,61.317 6.641,59.714 7.495,60.663C7.85,60.535 7.778,60.189 7.811,59.906L7.716,59.728C8.397,59.238 9.478,58.74 10.181,59.503C10.76,58.434 12.02,60.284 12.473,58.804C13.211,58.322 14.309,59.131 14.991,58.132C16.119,58.206 16.547,56.95 17.801,57.382C18.486,57.349 19.075,56.677 19.758,56.645C31.27,52.76 42.749,49.157 54.016,44.455C54.701,43.911 55.399,43.761 56.037,43.156L55.688,42.72C46.664,41.333 36.083,42.092 27.963,37.74C25.812,36.754 24.696,34.132 23.012,32.52C20.962,29.668 20.304,25.566 21.968,22.47C26.357,15.436 34.87,12.455 41.781,9.114C53.522,4.693 65.787,2.145 78.563,1.532C86.522,1.882 97.511,1.517 102.098,9.876Z" style="fill:none;stroke:white;stroke-width:1.19px;"/>
        <path d="M55.135,58.607L52.6,58.668C51.613,58.698 51.205,58.774 50.95,59.107C50.779,59.335 50.694,59.517 50.661,59.638C50.627,59.759 50.575,59.819 50.473,59.819C50.354,59.819 50.32,59.743 50.32,59.577C50.32,59.335 50.644,57.957 50.677,57.836C50.729,57.639 50.779,57.548 50.882,57.548C51.018,57.548 51.188,57.699 51.613,57.729C52.106,57.775 52.753,57.806 53.314,57.806L60.051,57.806C60.596,57.806 60.97,57.76 61.225,57.729C61.481,57.684 61.617,57.654 61.685,57.654C61.804,57.654 61.821,57.745 61.821,57.972C61.821,58.29 61.77,59.335 61.77,59.728C61.752,59.88 61.719,59.971 61.617,59.971C61.481,59.971 61.446,59.894 61.429,59.668L61.413,59.501C61.378,59.107 60.919,58.684 59.405,58.653L57.261,58.607L57.261,64.816C57.261,66.209 57.261,67.405 57.346,68.057C57.397,68.48 57.5,68.813 58.01,68.874C58.248,68.904 58.623,68.934 58.877,68.934C59.064,68.934 59.15,68.98 59.15,69.056C59.15,69.162 59.014,69.208 58.827,69.208C57.704,69.208 56.632,69.162 56.155,69.162C55.764,69.162 54.692,69.208 54.012,69.208C53.791,69.208 53.672,69.162 53.672,69.056C53.672,68.98 53.74,68.934 53.944,68.934C54.199,68.934 54.403,68.904 54.556,68.874C54.897,68.813 54.999,68.48 55.05,68.042C55.135,67.405 55.135,66.209 55.135,64.816L55.135,58.607Z" style="fill:white;fill-rule:nonzero;"/>
        <path d="M72.369,63.665C72.403,63.665 72.454,63.65 72.454,63.574L72.454,63.302C72.454,61.349 72.437,60.879 72.42,60.471C72.386,60.031 72.25,59.894 71.773,59.773C71.654,59.743 71.399,59.728 71.195,59.728C71.025,59.728 70.939,59.683 70.939,59.592C70.939,59.501 71.042,59.471 71.263,59.471C72.063,59.471 73.117,59.501 73.508,59.501C73.866,59.501 74.853,59.471 75.431,59.471C75.652,59.471 75.754,59.501 75.754,59.592C75.754,59.683 75.652,59.728 75.482,59.728C75.363,59.728 75.227,59.743 75.04,59.773C74.648,59.834 74.529,60.016 74.495,60.471C74.461,60.879 74.461,61.242 74.461,63.196L74.461,65.468C74.461,66.648 74.461,67.663 74.529,68.224C74.58,68.587 74.666,68.829 75.125,68.89C75.329,68.92 75.652,68.934 75.89,68.934C76.043,68.934 76.128,69.011 76.128,69.071C76.128,69.162 76.009,69.208 75.822,69.208C74.853,69.208 73.866,69.162 73.458,69.162C73.117,69.162 72.063,69.208 71.484,69.208C71.28,69.208 71.161,69.162 71.161,69.071C71.161,69.011 71.229,68.934 71.399,68.934C71.637,68.934 71.807,68.92 71.943,68.89C72.25,68.829 72.335,68.587 72.386,68.208C72.454,67.663 72.454,66.679 72.454,65.498L72.454,64.514C72.454,64.468 72.403,64.437 72.369,64.437L66.721,64.437C66.669,64.437 66.619,64.453 66.619,64.514L66.619,65.498C66.619,66.679 66.635,67.663 66.704,68.224C66.754,68.587 66.839,68.829 67.282,68.89C67.486,68.92 67.826,68.934 68.047,68.934C68.218,68.934 68.286,69.011 68.286,69.071C68.286,69.162 68.167,69.208 67.98,69.208C67.01,69.208 65.972,69.162 65.546,69.162C65.207,69.162 64.22,69.208 63.624,69.208C63.437,69.208 63.335,69.162 63.335,69.071C63.335,69.011 63.386,68.934 63.573,68.934C63.794,68.934 63.964,68.92 64.101,68.89C64.407,68.829 64.492,68.587 64.543,68.208C64.611,67.663 64.611,66.648 64.611,65.468L64.611,63.196C64.611,61.242 64.611,60.879 64.594,60.471C64.56,60.031 64.424,59.894 63.947,59.773C63.828,59.743 63.573,59.728 63.352,59.728C63.199,59.728 63.097,59.683 63.097,59.592C63.097,59.501 63.216,59.471 63.42,59.471C64.22,59.471 65.207,59.501 65.615,59.501C65.972,59.501 67.01,59.471 67.605,59.471C67.809,59.471 67.911,59.501 67.911,59.592C67.911,59.683 67.826,59.728 67.639,59.728C67.52,59.728 67.384,59.743 67.214,59.773C66.806,59.834 66.687,60.016 66.652,60.471C66.619,60.879 66.619,61.349 66.619,63.302L66.619,63.574C66.619,63.65 66.669,63.665 66.721,63.665L72.369,63.665Z" style="fill:white;fill-rule:nonzero;"/>
        <path d="M79.361,63.196C79.361,61.242 79.361,60.879 79.344,60.471C79.31,60.031 79.174,59.894 78.697,59.773C78.578,59.743 78.323,59.728 78.102,59.728C77.949,59.728 77.847,59.683 77.847,59.592C77.847,59.501 77.966,59.471 78.187,59.471C78.97,59.471 79.922,59.501 80.348,59.501C80.824,59.501 84.142,59.517 84.431,59.501C84.703,59.486 84.941,59.44 85.06,59.426C85.145,59.41 85.231,59.365 85.298,59.365C85.383,59.365 85.4,59.426 85.4,59.486C85.4,59.577 85.315,59.728 85.281,60.319C85.264,60.455 85.231,61.016 85.196,61.167C85.179,61.227 85.145,61.379 85.026,61.379C84.924,61.379 84.907,61.318 84.907,61.212C84.907,61.121 84.89,60.894 84.805,60.743C84.686,60.516 84.567,60.334 83.818,60.273C83.563,60.243 81.777,60.213 81.471,60.213C81.402,60.213 81.369,60.259 81.369,60.334L81.369,63.514C81.369,63.59 81.385,63.65 81.471,63.65C81.811,63.65 83.75,63.65 84.09,63.62C84.448,63.59 84.669,63.559 84.805,63.423C84.924,63.332 84.975,63.257 85.043,63.257C85.111,63.257 85.162,63.317 85.162,63.393C85.162,63.469 85.128,63.681 85.043,64.332C85.009,64.589 84.975,65.103 84.975,65.194C84.975,65.301 84.958,65.482 84.822,65.482C84.72,65.482 84.686,65.437 84.686,65.377C84.669,65.24 84.669,65.073 84.635,64.907C84.55,64.649 84.363,64.453 83.801,64.407C83.529,64.377 81.828,64.347 81.454,64.347C81.385,64.347 81.369,64.407 81.369,64.483L81.369,65.513C81.369,65.952 81.352,67.042 81.369,67.421C81.402,68.299 81.862,68.496 83.393,68.496C83.784,68.496 84.414,68.48 84.805,68.329C85.179,68.178 85.35,67.905 85.452,67.375C85.485,67.239 85.52,67.179 85.622,67.179C85.741,67.179 85.758,67.345 85.758,67.481C85.758,67.768 85.639,68.647 85.554,68.904C85.452,69.238 85.315,69.238 84.754,69.238C83.631,69.238 82.73,69.223 81.998,69.192C81.267,69.177 80.705,69.162 80.263,69.162C80.092,69.162 79.769,69.177 79.412,69.177C79.055,69.192 78.681,69.208 78.374,69.208C78.187,69.208 78.085,69.162 78.085,69.071C78.085,69.011 78.136,68.934 78.323,68.934C78.544,68.934 78.714,68.92 78.851,68.89C79.157,68.829 79.242,68.587 79.293,68.208C79.361,67.663 79.361,66.648 79.361,65.468L79.361,63.196Z" style="fill:white;fill-rule:nonzero;"/>
        <path d="M93.005,65.255C93.073,65.255 93.09,65.225 93.073,65.18L91.661,61.909C91.644,61.863 91.626,61.788 91.593,61.788C91.542,61.788 91.524,61.863 91.507,61.909L90.062,65.164C90.027,65.225 90.062,65.255 90.112,65.255L93.005,65.255ZM89.806,65.967C89.722,65.967 89.704,65.982 89.67,66.058L88.87,67.784C88.718,68.102 88.649,68.42 88.649,68.571C88.649,68.799 88.786,68.934 89.245,68.934L89.466,68.934C89.653,68.934 89.687,68.995 89.687,69.071C89.687,69.177 89.603,69.208 89.449,69.208C88.956,69.208 88.259,69.162 87.782,69.162C87.628,69.162 86.829,69.208 86.046,69.208C85.859,69.208 85.774,69.177 85.774,69.071C85.774,68.995 85.825,68.934 85.944,68.934C86.081,68.934 86.251,68.92 86.387,68.92C87.067,68.829 87.322,68.435 87.628,67.784L91.542,59.683C91.712,59.319 91.831,59.168 91.983,59.168C92.205,59.168 92.272,59.289 92.427,59.577C92.783,60.289 95.284,65.559 96.237,67.512C96.815,68.678 97.241,68.844 97.513,68.89C97.733,68.92 97.904,68.934 98.074,68.934C98.21,68.934 98.278,68.98 98.278,69.071C98.278,69.177 98.193,69.208 97.632,69.208C97.105,69.208 96.016,69.208 94.757,69.177C94.485,69.162 94.314,69.162 94.314,69.071C94.314,68.995 94.349,68.95 94.502,68.934C94.605,68.92 94.706,68.799 94.638,68.647L93.481,66.058C93.446,65.982 93.396,65.967 93.327,65.967L89.806,65.967Z" style="fill:white;fill-rule:nonzero;"/>
        <path d="M100.797,60.259L98.567,60.304C97.7,60.319 97.343,60.41 97.122,60.697C96.969,60.879 96.901,61.046 96.866,61.137C96.833,61.242 96.799,61.303 96.696,61.303C96.595,61.303 96.561,61.227 96.561,61.091C96.561,60.879 96.85,59.638 96.884,59.531C96.918,59.365 96.969,59.289 97.054,59.289C97.173,59.289 97.326,59.395 97.7,59.44C98.143,59.486 98.704,59.501 99.198,59.501L105.272,59.501C105.748,59.501 106.071,59.471 106.292,59.44C106.531,59.41 106.65,59.38 106.701,59.38C106.802,59.38 106.82,59.456 106.82,59.652C106.82,59.925 106.786,60.879 106.786,61.212C106.769,61.349 106.735,61.425 106.65,61.425C106.531,61.425 106.497,61.363 106.479,61.167L106.462,61.03C106.428,60.697 106.037,60.304 104.693,60.289L102.805,60.259L102.805,65.468C102.805,66.648 102.822,67.663 102.89,68.224C102.941,68.587 103.026,68.829 103.468,68.89C103.672,68.92 104.012,68.934 104.234,68.934C104.404,68.934 104.472,69.011 104.472,69.071C104.472,69.162 104.353,69.208 104.183,69.208C103.196,69.208 102.192,69.162 101.767,69.162C101.426,69.162 100.406,69.208 99.81,69.208C99.623,69.208 99.521,69.162 99.521,69.071C99.521,69.011 99.571,68.934 99.759,68.934C99.98,68.934 100.167,68.92 100.287,68.89C100.593,68.829 100.678,68.587 100.729,68.208C100.797,67.663 100.797,66.648 100.797,65.468L100.797,60.259Z" style="fill:white;fill-rule:nonzero;"/>
        <path d="M111.481,64.195C111.481,64.332 111.515,64.377 111.617,64.423C111.94,64.514 112.382,64.544 112.756,64.544C113.352,64.544 113.556,64.498 113.811,64.332C114.271,64.044 114.781,63.483 114.781,62.424C114.781,60.606 113.386,60.138 112.501,60.138C112.127,60.138 111.77,60.152 111.617,60.183C111.515,60.213 111.481,60.259 111.481,60.364L111.481,64.195ZM109.576,63.196C109.576,61.242 109.576,60.879 109.558,60.471C109.524,60.031 109.388,59.894 108.912,59.773C108.792,59.743 108.538,59.728 108.316,59.728C108.164,59.728 108.061,59.683 108.061,59.592C108.061,59.501 108.18,59.471 108.402,59.471C109.184,59.471 110.136,59.501 110.443,59.501C110.954,59.501 112.314,59.471 112.774,59.471C113.726,59.471 114.815,59.547 115.615,60.016C116.041,60.273 116.669,60.925 116.669,61.788C116.669,62.742 116.057,63.59 114.594,64.635C115.921,66.088 116.976,67.254 117.877,68.057C118.711,68.799 119.239,68.859 119.477,68.904C119.629,68.934 119.714,68.934 119.833,68.934C119.953,68.934 120.021,69.011 120.021,69.071C120.021,69.177 119.919,69.208 119.732,69.208L118.303,69.208C117.469,69.208 117.061,69.132 116.669,68.95C116.023,68.662 115.461,68.057 114.628,67.058C114.033,66.36 113.403,65.498 113.216,65.301C113.131,65.225 113.045,65.21 112.944,65.21L111.6,65.18C111.532,65.18 111.481,65.21 111.481,65.286L111.481,65.468C111.481,66.664 111.498,67.663 111.566,68.208C111.617,68.587 111.685,68.829 112.144,68.89C112.366,68.92 112.689,68.934 112.875,68.934C112.995,68.934 113.063,69.011 113.063,69.071C113.063,69.162 112.944,69.208 112.756,69.208C111.889,69.208 110.647,69.162 110.426,69.162C110.136,69.162 109.184,69.208 108.588,69.208C108.402,69.208 108.299,69.162 108.299,69.071C108.299,69.011 108.35,68.934 108.538,68.934C108.758,68.934 108.929,68.92 109.065,68.89C109.372,68.829 109.457,68.587 109.507,68.208C109.576,67.663 109.576,66.648 109.576,65.468L109.576,63.196Z" style="fill:white;fill-rule:nonzero;"/>
        <path d="M121.247,63.196C121.247,61.242 121.247,60.879 121.229,60.471C121.195,60.031 121.059,59.894 120.583,59.773C120.463,59.743 120.208,59.728 119.987,59.728C119.834,59.728 119.732,59.683 119.732,59.592C119.732,59.501 119.851,59.471 120.073,59.471C120.855,59.471 121.807,59.501 122.233,59.501C122.709,59.501 126.027,59.517 126.316,59.501C126.588,59.486 126.827,59.44 126.946,59.426C127.031,59.41 127.116,59.365 127.183,59.365C127.269,59.365 127.286,59.426 127.286,59.486C127.286,59.577 127.201,59.728 127.167,60.319C127.15,60.455 127.116,61.016 127.082,61.167C127.065,61.227 127.031,61.379 126.912,61.379C126.809,61.379 126.792,61.318 126.792,61.212C126.792,61.121 126.775,60.894 126.69,60.743C126.571,60.516 126.452,60.334 125.704,60.273C125.449,60.243 123.662,60.213 123.356,60.213C123.288,60.213 123.253,60.259 123.253,60.334L123.253,63.514C123.253,63.59 123.271,63.65 123.356,63.65C123.696,63.65 125.635,63.65 125.976,63.62C126.333,63.59 126.554,63.559 126.69,63.423C126.809,63.332 126.861,63.257 126.928,63.257C126.997,63.257 127.047,63.317 127.047,63.393C127.047,63.469 127.013,63.681 126.928,64.332C126.894,64.589 126.861,65.103 126.861,65.194C126.861,65.301 126.843,65.482 126.708,65.482C126.605,65.482 126.571,65.437 126.571,65.377C126.554,65.24 126.554,65.073 126.52,64.907C126.435,64.649 126.248,64.453 125.686,64.407C125.415,64.377 123.713,64.347 123.338,64.347C123.271,64.347 123.253,64.407 123.253,64.483L123.253,65.513C123.253,65.952 123.237,67.042 123.253,67.421C123.288,68.299 123.747,68.496 125.278,68.496C125.669,68.496 126.299,68.48 126.69,68.329C127.065,68.178 127.235,67.905 127.336,67.375C127.371,67.239 127.405,67.179 127.507,67.179C127.625,67.179 127.643,67.345 127.643,67.481C127.643,67.768 127.524,68.647 127.439,68.904C127.336,69.238 127.201,69.238 126.639,69.238C125.516,69.238 124.615,69.223 123.883,69.192C123.152,69.177 122.59,69.162 122.148,69.162C121.978,69.162 121.655,69.177 121.297,69.177C120.94,69.192 120.566,69.208 120.259,69.208C120.073,69.208 119.97,69.162 119.97,69.071C119.97,69.011 120.021,68.934 120.208,68.934C120.429,68.934 120.6,68.92 120.736,68.89C121.042,68.829 121.127,68.587 121.178,68.208C121.247,67.663 121.247,66.648 121.247,65.468L121.247,63.196Z" style="fill:white;fill-rule:nonzero;"/>
        <path d="M146.816,68.193C146.816,68.601 146.799,68.632 146.595,68.738C145.49,69.253 143.822,69.42 142.496,69.42C138.327,69.42 134.635,67.663 134.635,63.483C134.635,61.06 136.047,59.365 137.595,58.532C139.229,57.654 140.743,57.548 142.172,57.548C143.346,57.548 144.843,57.729 145.183,57.79C145.541,57.851 146.136,57.941 146.527,57.957C146.731,57.972 146.765,58.032 146.765,58.139C146.765,58.305 146.646,58.728 146.646,60.622C146.646,60.864 146.595,60.939 146.459,60.939C146.34,60.939 146.306,60.864 146.289,60.743C146.238,60.394 146.153,59.91 145.71,59.486C145.201,59.002 143.839,58.305 141.917,58.305C140.981,58.305 139.739,58.365 138.548,59.244C137.595,59.955 136.983,61.091 136.983,62.954C136.983,66.209 139.314,68.647 142.904,68.647C143.346,68.647 143.941,68.647 144.349,68.48C144.605,68.375 144.672,68.178 144.672,67.921L144.672,66.497C144.672,65.74 144.672,65.164 144.656,64.71C144.639,64.195 144.486,63.953 143.924,63.847C143.789,63.816 143.499,63.802 143.261,63.802C143.108,63.802 143.005,63.771 143.005,63.681C143.005,63.559 143.125,63.529 143.363,63.529C144.248,63.529 145.319,63.574 145.83,63.574C146.357,63.574 147.258,63.529 147.82,63.529C148.042,63.529 148.161,63.559 148.161,63.681C148.161,63.771 148.058,63.802 147.939,63.802C147.803,63.802 147.684,63.816 147.48,63.847C147.021,63.923 146.85,64.181 146.833,64.71C146.816,65.164 146.816,65.77 146.816,66.527L146.816,68.193Z" style="fill:white;fill-rule:nonzero;"/>
        <path d="M150.576,63.196C150.576,61.242 150.592,60.879 150.558,60.471C150.524,60.016 150.388,59.894 149.912,59.773C149.792,59.743 149.538,59.728 149.333,59.728C149.164,59.728 149.079,59.683 149.079,59.592C149.079,59.501 149.18,59.471 149.402,59.471C150.201,59.471 151.205,59.501 151.647,59.501C152.021,59.501 153.025,59.471 153.57,59.471C153.791,59.471 153.893,59.501 153.893,59.592C153.893,59.683 153.808,59.728 153.655,59.728C153.485,59.728 153.399,59.743 153.212,59.773C152.821,59.834 152.702,60.016 152.667,60.471C152.634,60.879 152.634,61.242 152.634,63.196L152.634,64.998C152.634,66.876 153.042,67.602 153.774,68.117C154.437,68.587 155.152,68.632 155.662,68.632C156.308,68.632 157.074,68.466 157.669,67.951C158.503,67.254 158.538,66.134 158.538,64.816L158.538,63.196C158.538,61.242 158.52,60.879 158.503,60.471C158.469,60.031 158.35,59.894 157.874,59.773C157.754,59.743 157.5,59.728 157.33,59.728C157.16,59.728 157.074,59.683 157.074,59.592C157.074,59.501 157.176,59.471 157.38,59.471C158.146,59.471 159.15,59.501 159.167,59.501C159.336,59.501 160.34,59.471 160.919,59.471C161.124,59.471 161.225,59.501 161.225,59.592C161.225,59.683 161.14,59.728 160.97,59.728C160.8,59.728 160.714,59.743 160.528,59.773C160.12,59.834 160.017,60.016 159.983,60.471C159.966,60.879 159.95,61.242 159.95,63.196L159.95,64.574C159.95,66.013 159.779,67.526 158.52,68.45C157.465,69.238 156.326,69.374 155.356,69.374C154.574,69.374 153.025,69.344 151.936,68.496C151.17,67.905 150.576,66.951 150.576,65.089L150.576,63.196Z" style="fill:white;fill-rule:nonzero;"/>
        <path d="M163.812,63.196C163.812,61.242 163.812,60.879 163.794,60.471C163.76,60.031 163.608,59.88 163.285,59.789C163.114,59.743 162.927,59.728 162.74,59.728C162.586,59.728 162.501,59.698 162.501,59.577C162.501,59.501 162.621,59.471 162.859,59.471C163.42,59.471 164.441,59.501 164.867,59.501C165.241,59.501 166.21,59.471 166.789,59.471C166.976,59.471 167.095,59.501 167.095,59.577C167.095,59.698 167.01,59.728 166.857,59.728C166.704,59.728 166.584,59.743 166.415,59.773C166.006,59.834 165.887,60.016 165.853,60.471C165.819,60.879 165.819,61.242 165.819,63.196L165.819,65.468C165.819,66.709 165.819,67.738 165.887,68.284C165.938,68.632 166.041,68.829 166.483,68.89C166.687,68.92 167.027,68.934 167.249,68.934C167.418,68.934 167.487,69.011 167.487,69.071C167.487,69.162 167.368,69.208 167.197,69.208C166.21,69.208 165.19,69.162 164.782,69.162C164.441,69.162 163.42,69.208 162.825,69.208C162.638,69.208 162.536,69.162 162.536,69.071C162.536,69.011 162.586,68.934 162.774,68.934C162.995,68.934 163.166,68.92 163.301,68.89C163.608,68.829 163.693,68.647 163.744,68.268C163.812,67.738 163.812,66.709 163.812,65.468L163.812,63.196Z" style="fill:white;fill-rule:nonzero;"/>
        <path d="M172.744,65.468C172.744,67.118 172.744,67.935 173.067,68.178C173.323,68.375 173.901,68.45 175.058,68.45C175.857,68.45 176.436,68.435 176.81,68.087C176.998,67.921 177.15,67.557 177.184,67.314C177.202,67.193 177.235,67.118 177.354,67.118C177.457,67.118 177.491,67.254 177.491,67.405C177.491,67.557 177.388,68.511 177.269,68.89C177.167,69.177 177.099,69.238 176.317,69.238C175.245,69.238 174.377,69.223 173.628,69.192C172.88,69.177 172.25,69.162 171.638,69.162C171.468,69.162 171.145,69.177 170.788,69.177C170.43,69.192 170.056,69.208 169.75,69.208C169.563,69.208 169.46,69.162 169.46,69.071C169.46,69.011 169.511,68.934 169.699,68.934C169.919,68.934 170.09,68.92 170.226,68.89C170.533,68.829 170.618,68.587 170.668,68.208C170.737,67.663 170.737,66.648 170.737,65.468L170.737,63.196C170.737,61.242 170.737,60.879 170.719,60.471C170.685,60.031 170.549,59.894 170.073,59.773C169.954,59.743 169.767,59.728 169.58,59.728C169.41,59.728 169.325,59.683 169.325,59.592C169.325,59.501 169.426,59.471 169.648,59.471C170.345,59.471 171.297,59.501 171.707,59.501C172.063,59.501 173.289,59.471 173.867,59.471C174.088,59.471 174.19,59.501 174.19,59.592C174.19,59.683 174.105,59.728 173.917,59.728C173.748,59.728 173.509,59.743 173.339,59.773C172.931,59.834 172.812,60.016 172.778,60.471C172.744,60.879 172.744,61.242 172.744,63.196L172.744,65.468Z" style="fill:white;fill-rule:nonzero;"/>
        <path d="M182.134,64.619C182.134,65.982 182.152,66.967 182.168,67.224C182.186,67.542 182.219,67.996 182.338,68.133C182.526,68.375 183.122,68.647 184.295,68.647C185.656,68.647 186.66,68.435 187.562,67.768C188.532,67.058 188.837,65.906 188.837,64.574C188.837,62.938 188.106,61.879 187.443,61.363C186.064,60.273 184.431,60.138 183.257,60.138C182.951,60.138 182.458,60.168 182.338,60.228C182.203,60.273 182.152,60.334 182.152,60.485C182.134,60.925 182.134,61.984 182.134,62.999L182.134,64.619ZM180.127,63.196C180.127,61.242 180.127,60.879 180.11,60.471C180.076,60.031 179.94,59.894 179.463,59.773C179.344,59.743 179.089,59.728 178.868,59.728C178.715,59.728 178.613,59.683 178.613,59.592C178.613,59.501 178.732,59.471 178.954,59.471C179.736,59.471 180.688,59.501 181.114,59.501C181.573,59.501 182.645,59.471 183.546,59.471C185.417,59.471 187.936,59.471 189.569,60.939C190.318,61.606 190.981,62.681 190.981,64.211C190.981,65.831 190.199,67.058 189.348,67.799C188.667,68.405 187.085,69.313 184.33,69.313C183.785,69.313 183.138,69.268 182.542,69.238C181.948,69.192 181.403,69.162 181.029,69.162C180.859,69.162 180.536,69.177 180.178,69.177C179.821,69.192 179.447,69.208 179.14,69.208C178.954,69.208 178.851,69.162 178.851,69.071C178.851,69.011 178.902,68.934 179.089,68.934C179.31,68.934 179.481,68.92 179.617,68.89C179.923,68.829 180.008,68.587 180.059,68.208C180.127,67.663 180.127,66.648 180.127,65.468L180.127,63.196Z" style="fill:white;fill-rule:nonzero;"/>
        <path d="M64.709,72.923C63.835,71.811 62.459,71.52 61.588,71.264C60.072,70.818 54.52,70.247 50.197,70.763C45.875,71.278 44.982,74.784 44.982,74.784C44.982,74.784 44.321,76.308 45.041,83.561C45.761,90.811 47.605,94.467 49.491,96.447C51.379,98.428 52.812,98.863 55.649,98.205C58.484,97.551 62.419,92.738 63.447,90.161C63.935,88.935 64.236,87.012 64.497,84.812L64.709,72.923Z" style="fill:rgb(255,251,206);fill-rule:nonzero;"/>
        <path d="M64.709,72.923C63.835,71.811 62.459,71.52 61.588,71.264C60.072,70.818 54.52,70.247 50.197,70.763C45.875,71.278 44.982,74.784 44.982,74.784C44.982,74.784 44.321,76.308 45.041,83.561C45.761,90.811 47.605,94.467 49.491,96.447C51.379,98.428 52.812,98.863 55.649,98.205C58.484,97.551 62.419,92.738 63.447,90.161C63.935,88.935 64.236,87.012 64.497,84.812L64.709,72.923Z" style="fill:none;stroke:rgb(20,19,95);stroke-width:1.02px;"/>
        <path d="M54.843,76.614C54.843,76.614 58.78,76.148 60.487,80.305" style="fill:none;stroke:rgb(93,40,129);stroke-width:0.51px;"/>
        <path d="M46.964,79.622C46.964,79.622 47.917,76.475 50.874,77.038" style="fill:none;stroke:rgb(93,40,129);stroke-width:0.51px;"/>
        <path d="M60.243,81.381L59.643,82.206C59.643,82.206 56.6,83.143 54.559,80.819L54.165,80.061C54.165,80.061 55.978,77.859 60.243,81.381Z" style="fill:rgb(20,19,95);fill-rule:nonzero;"/>
        <path d="M60.243,81.381L59.643,82.206C59.643,82.206 56.6,83.143 54.559,80.819L54.165,80.061C54.165,80.061 55.978,77.859 60.243,81.381Z" style="fill:none;stroke:rgb(93,40,129);stroke-width:0.51px;"/>
        <path d="M51.009,80.33L51.009,81.162C51.009,81.162 48.146,83.404 46.787,82.569C45.426,81.736 45.813,81.44 45.813,81.44C45.813,81.44 49.503,78.997 51.009,80.33Z" style="fill:rgb(20,19,95);fill-rule:nonzero;"/>
        <path d="M51.009,80.33L51.009,81.162C51.009,81.162 48.146,83.404 46.787,82.569C45.426,81.736 45.813,81.44 45.813,81.44C45.813,81.44 49.503,78.997 51.009,80.33Z" style="fill:none;stroke:rgb(93,40,129);stroke-width:0.51px;"/>
        <path d="M51.004,81.367C51.004,81.367 51.331,83.615 49.953,85.998C49.953,85.998 50.432,88.847 54.429,87.023" style="fill:none;stroke:rgb(93,40,129);stroke-width:0.51px;"/>
        <path d="M49.155,93.039C49.155,93.039 53.872,91.899 56.7,93.151C59.532,94.398 58.751,92.995 58.698,92.827C58.643,92.662 56.633,88.307 52.818,88.585C49.005,88.862 48.835,92.555 48.835,92.555C48.835,92.555 48.505,93.111 49.155,93.039Z" style="fill:rgb(20,19,95);fill-rule:nonzero;"/>
        <path d="M49.155,93.039C49.155,93.039 53.872,91.899 56.7,93.151C59.532,94.398 58.751,92.995 58.698,92.827C58.643,92.662 56.633,88.307 52.818,88.585C49.005,88.862 48.835,92.555 48.835,92.555C48.835,92.555 48.505,93.111 49.155,93.039Z" style="fill:none;stroke:rgb(93,40,129);stroke-width:0.45px;"/>
        <path d="M57.762,88.226C57.762,88.226 60.543,91.239 60.538,92.611C60.533,93.981 59.155,96.029 58.502,95.777" style="fill:none;stroke:rgb(93,40,129);stroke-width:0.45px;"/>
        <path d="M55.139,94.058C55.139,94.058 53.882,93.101 52.081,94" style="fill:none;stroke:rgb(93,40,129);stroke-width:0.45px;"/>
        <path d="M49.378,88.813C49.378,88.813 47.784,92.548 47.938,93.34C48.092,94.129 49.5,95.167 49.754,95.2" style="fill:none;stroke:rgb(93,40,129);stroke-width:0.45px;"/>
        <path d="M60.196,81.298C60.196,81.298 61.721,82.78 59.98,83.667" style="fill:none;stroke:rgb(93,40,129);stroke-width:0.45px;"/>
        <path d="M45.982,81.329C45.982,81.329 44.936,82.94 45.838,83.91" style="fill:none;stroke:rgb(93,40,129);stroke-width:0.45px;"/>
        <path d="M50.708,76.876C50.708,76.876 50.73,79.431 50.96,80.307" style="fill:white;fill-rule:nonzero;"/>
        <path d="M50.708,76.876C50.708,76.876 50.73,79.431 50.96,80.307" style="fill:none;stroke:rgb(93,40,129);stroke-width:0.49px;"/>
        <path d="M48.294,68.562C48.294,68.562 48.503,64.949 44.538,63.151C40.572,61.357 35.105,60.224 33.526,60.195C31.944,60.16 28.869,59.766 28.12,64.595C27.369,69.422 25.854,74.882 26.053,77.647C26.256,80.414 28.552,86.192 31.061,87.671C33.568,89.152 35.064,89.172 37.46,87.853C39.858,86.532 42.72,83.604 45.594,76.908C48.468,70.212 48.294,68.562 48.294,68.562Z" style="fill:rgb(255,251,206);fill-rule:nonzero;"/>
        <path d="M48.294,68.562C48.294,68.562 48.503,64.949 44.538,63.151C40.572,61.357 35.105,60.224 33.526,60.195C31.944,60.16 28.869,59.766 28.12,64.595C27.369,69.422 25.854,74.882 26.053,77.647C26.256,80.414 28.552,86.192 31.061,87.671C33.568,89.152 35.064,89.172 37.46,87.853C39.858,86.532 42.72,83.604 45.594,76.908C48.468,70.212 48.294,68.562 48.294,68.562Z" style="fill:none;stroke:rgb(20,19,95);stroke-width:1.02px;"/>
        <path d="M37.575,69.708C37.575,69.708 35.986,66.075 31.534,66.705" style="fill:none;stroke:rgb(93,40,129);stroke-width:0.51px;"/>
        <path d="M45.939,70.914C45.939,70.914 43.53,68.675 41.262,70.654" style="fill:none;stroke:rgb(93,40,129);stroke-width:0.51px;"/>
        <path d="M36.02,72.463L36.434,71.577C36.434,71.577 34.578,68.681 31.501,68.972L30.242,69.107C30.242,69.107 30.499,72.095 36.02,72.463Z" style="fill:rgb(20,19,95);fill-rule:nonzero;"/>
        <path d="M36.02,72.463L36.434,71.577C36.434,71.577 34.578,68.681 31.501,68.972L30.242,69.107C30.242,69.107 30.499,72.095 36.02,72.463Z" style="fill:none;stroke:rgb(93,40,129);stroke-width:0.51px;"/>
        <path d="M45.772,73.888L45.026,73.024C45.026,73.024 41.699,71.61 40.566,72.75C39.434,73.888 39.88,74.075 39.88,74.075C39.88,74.075 44.616,75.539 45.772,73.888Z" style="fill:rgb(20,19,95);fill-rule:nonzero;"/>
        <path d="M45.772,73.888L45.026,73.024C45.026,73.024 41.699,71.61 40.566,72.75C39.434,73.888 39.88,74.075 39.88,74.075C39.88,74.075 44.616,75.539 45.772,73.888Z" style="fill:none;stroke:rgb(93,40,129);stroke-width:0.51px;"/>
        <path d="M39.921,73.564C39.921,73.564 39.161,75.011 39.756,77.698C39.756,77.698 38.443,80.272 35.179,77.324" style="fill:none;stroke:rgb(93,40,129);stroke-width:0.51px;"/>
        <path d="M33.151,76.12C33.151,76.12 29.423,75.469 29.094,76.027C28.766,76.583 27.789,79.844 28.769,81.553" style="fill:none;stroke:rgb(93,40,129);stroke-width:0.51px;"/>
        <path d="M41.26,78.664C41.26,78.664 42.673,80.342 42.33,81.326C41.99,82.311 38.742,86.261 37.233,86.666C35.724,87.072 32.819,87.062 31.74,85.608" style="fill:none;stroke:rgb(93,40,129);stroke-width:0.51px;"/>
        <path d="M40.352,80.73C40.352,80.73 35.155,80.83 32.957,78.622C30.758,76.412 30.861,78.267 30.835,78.478C30.806,78.687 30.724,84.33 34.62,85.002C38.515,85.676 40.437,81.385 40.437,81.385C40.437,81.385 41.025,80.816 40.352,80.73Z" style="fill:rgb(20,19,95);fill-rule:nonzero;"/>
        <path d="M40.352,80.73C40.352,80.73 35.155,80.83 32.957,78.622C30.758,76.412 30.861,78.267 30.835,78.478C30.806,78.687 30.724,84.33 34.62,85.002C38.515,85.676 40.437,81.385 40.437,81.385C40.437,81.385 41.025,80.816 40.352,80.73Z" style="fill:none;stroke:rgb(93,40,129);stroke-width:0.51px;"/>
        <path d="M47.647,71.696C47.647,71.696 48.653,71.286 48.979,71.376C49.303,71.469 46.693,77.064 46.693,77.064C46.693,77.064 45.971,78.852 45.206,79.379C44.442,79.905 44.283,79.653 44.283,79.653C44.283,79.653 45.817,77.161 46.144,76.364C46.469,75.569 47.647,71.696 47.647,71.696Z" style="fill:rgb(46,48,146);fill-rule:nonzero;"/>
        <path d="M47.647,71.696C47.647,71.696 48.653,71.286 48.979,71.376C49.303,71.469 46.693,77.064 46.693,77.064C46.693,77.064 45.971,78.852 45.206,79.379C44.442,79.905 44.283,79.653 44.283,79.653C44.283,79.653 45.817,77.161 46.144,76.364C46.469,75.569 47.647,71.696 47.647,71.696Z" style="fill:none;stroke:rgb(20,19,95);stroke-width:0.68px;"/>
        <path d="M37.536,69.546C37.536,69.546 36.428,71.395 36.232,72.154" style="fill:rgb(255,194,13);fill-rule:nonzero;"/>
        <path d="M37.536,69.546C37.536,69.546 36.428,71.395 36.232,72.154" style="fill:none;stroke:rgb(93,40,129);stroke-width:0.45px;"/>
    </g>
</svg>
